<svg height='100px' width='100px'  fill="#000000" xmlns="http://www.w3.org/2000/svg" xmlns:xlink="http://www.w3.org/1999/xlink" version="1.1" x="0px" y="0px" viewBox="0 0 100 100" enable-background="new 0 0 100 100" xml:space="preserve"><g><path d="M91.343,86.653c-0.635,0.635-1.429,0.953-2.224,0.953H38.394v1.75h50.725c1.43,0,2.701-0.48,3.657-1.434   c0.953-0.952,1.429-2.068,1.429-3.656l-1.907,0.159C92.299,85.219,91.983,86.015,91.343,86.653z"></path><path d="M28.851,75.045c-0.16,0-0.478,0.158-1.113,0.318c-0.476,0.157-0.953-0.16-1.112-0.478L5,53.259v3.817l20.036,20.196   c0.794,0.794,1.749,1.111,2.703,0.952c0.953-0.158,1.748-0.477,2.545-0.795c0.794-0.317,1.112-0.638,1.112-0.796l-1.909-1.907   C29.327,74.727,29.011,74.885,28.851,75.045z"></path><path d="M19.946,61.526c0.797,0.636,1.592,0.795,2.704,0.636h17.333c1.112,0.159,2.068,0,2.863-0.318   c0.953-0.318,1.429-0.477,1.591-0.794c0.318-0.16,0.478-0.16,0.635-0.318l8.429-9.541l10.176,9.699l-4.134,17.969   c-0.161,0.317-0.161,0.635-0.161,0.953c0,1.114,0.48,2.226,1.274,3.021c0.794,0.796,1.909,1.274,3.021,1.274   c0.953,0,1.75-0.318,2.545-0.953c0.794-0.638,1.27-1.434,1.588-2.386l4.77-21.946c0.478-0.953,0.478-2.068,0.318-2.862   c-0.158-0.953-0.476-1.59-0.635-1.748c-0.158-0.317-0.318-0.477-0.318-0.477l-8.904-8.906l9.539-11.129l6.201,6.202l0.636,0.635   c0.477,0.318,1.116,0.476,2.068,0.476c0.953-0.157,1.751-0.635,2.703-1.589l9.859-10.02C94.682,28.77,95,27.976,95,27.181   c0-0.956-0.318-1.749-1.112-2.385c-0.636-0.478-1.43-0.795-2.386-0.795c-0.795,0-1.43,0.159-2.065,0.635l-8.269,8.425   l-10.02-10.176c-0.795-0.794-1.748-1.112-2.861-1.112H52.544c-0.953,0-1.907,0.318-2.544,1.112L39.188,35.449   c-0.635,0.638-0.956,1.431-0.956,2.385c0,0.795,0.32,1.591,0.956,2.228c0.477,0.635,1.272,0.951,2.225,0.951   c1.114,0,1.908-0.316,2.386-1.111l10.178-11.768l5.725,0.318L37.597,54.055H22.65h-1.112c-1.116,0.158-1.91,0.795-2.545,1.748   c-0.634,0.953-0.794,2.068-0.477,3.179C18.674,59.938,19.152,60.891,19.946,61.526z"></path><path d="M71.469,21.456c1.27,1.272,2.862,1.907,4.608,1.907c1.91,0,3.499-0.635,4.613-1.907c1.271-1.114,1.907-2.704,1.907-4.454   c0-1.75-0.635-3.338-1.907-4.608c-1.114-1.115-2.703-1.75-4.613-1.75c-1.746,0-3.338,0.635-4.608,1.75   c-1.274,1.27-1.751,2.859-1.751,4.608C69.719,18.752,70.195,20.342,71.469,21.456z"></path></g></svg>